
<svg width="400" height="400" viewBox="0 0 400 400" fill="none" xmlns="http://www.w3.org/2000/svg">
  <path d="M50 25C50 11.1929 61.1929 0 75 0H125C138.807 0 150 11.1929 150 25V75C150 88.8071 138.807 100 125 100H75C61.1929 100 50 88.8071 50 75V25Z" fill="white" fill-opacity="0.05"/>
  <path d="M50 125C50 111.193 61.1929 100 75 100H125C138.807 100 150 111.193 150 125V175C150 188.807 138.807 200 125 200H75C61.1929 200 50 188.807 50 175V125Z" fill="white" fill-opacity="0.05"/>
  <path d="M50 225C50 211.193 61.1929 200 75 200H125C138.807 200 150 211.193 150 225V275C150 288.807 138.807 300 125 300H75C61.1929 300 50 288.807 50 275V225Z" fill="white" fill-opacity="0.05"/>
  <path d="M50 325C50 311.193 61.1929 300 75 300H125C138.807 300 150 311.193 150 325V375C150 388.807 138.807 400 125 400H75C61.1929 400 50 388.807 50 375V325Z" fill="white" fill-opacity="0.05"/>
  <path d="M150 25C150 11.1929 161.193 0 175 0H225C238.807 0 250 11.1929 250 25V75C250 88.8071 238.807 100 225 100H175C161.193 100 150 88.8071 150 75V25Z" fill="white" fill-opacity="0.05"/>
  <path d="M150 125C150 111.193 161.193 100 175 100H225C238.807 100 250 111.193 250 125V175C250 188.807 238.807 200 225 200H175C161.193 200 150 188.807 150 175V125Z" fill="white" fill-opacity="0.05"/>
  <path d="M150 225C150 211.193 161.193 200 175 200H225C238.807 200 250 211.193 250 225V275C250 288.807 238.807 300 225 300H175C161.193 300 150 288.807 150 275V225Z" fill="white" fill-opacity="0.05"/>
  <path d="M150 325C150 311.193 161.193 300 175 300H225C238.807 300 250 311.193 250 325V375C250 388.807 238.807 400 225 400H175C161.193 400 150 388.807 150 375V325Z" fill="white" fill-opacity="0.05"/>
  <path d="M250 25C250 11.1929 261.193 0 275 0H325C338.807 0 350 11.1929 350 25V75C350 88.8071 338.807 100 325 100H275C261.193 100 250 88.8071 250 75V25Z" fill="white" fill-opacity="0.05"/>
  <path d="M250 125C250 111.193 261.193 100 275 100H325C338.807 100 350 111.193 350 125V175C350 188.807 338.807 200 325 200H275C261.193 200 250 188.807 250 175V125Z" fill="white" fill-opacity="0.05"/>
  <path d="M250 225C250 211.193 261.193 200 275 200H325C338.807 200 350 211.193 350 225V275C350 288.807 338.807 300 325 300H275C261.193 300 250 288.807 250 275V225Z" fill="white" fill-opacity="0.05"/>
  <path d="M250 325C250 311.193 261.193 300 275 300H325C338.807 300 350 311.193 350 325V375C350 388.807 338.807 400 325 400H275C261.193 400 250 388.807 250 375V325Z" fill="white" fill-opacity="0.05"/>
  <path d="M0 25C0 11.1929 11.1929 0 25 0H50C63.8071 0 75 11.1929 75 25V75C75 88.8071 63.8071 100 50 100H25C11.1929 100 0 88.8071 0 75V25Z" fill="white" fill-opacity="0.05"/>
  <path d="M0 125C0 111.193 11.1929 100 25 100H50C63.8071 100 75 111.193 75 125V175C75 188.807 63.8071 200 50 200H25C11.1929 200 0 188.807 0 175V125Z" fill="white" fill-opacity="0.05"/>
  <path d="M0 225C0 211.193 11.1929 200 25 200H50C63.8071 200 75 211.193 75 225V275C75 288.807 63.8071 300 50 300H25C11.1929 300 0 288.807 0 275V225Z" fill="white" fill-opacity="0.05"/>
  <path d="M0 325C0 311.193 11.1929 300 25 300H50C63.8071 300 75 311.193 75 325V375C75 388.807 63.8071 400 50 400H25C11.1929 400 0 388.807 0 375V325Z" fill="white" fill-opacity="0.05"/>
  <path d="M350 25C350 11.1929 361.193 0 375 0H400C413.807 0 425 11.1929 425 25V75C425 88.8071 413.807 100 400 100H375C361.193 100 350 88.8071 350 75V25Z" fill="white" fill-opacity="0.05"/>
  <path d="M350 125C350 111.193 361.193 100 375 100H400C413.807 100 425 111.193 425 125V175C425 188.807 413.807 200 400 200H375C361.193 200 350 188.807 350 175V125Z" fill="white" fill-opacity="0.05"/>
  <path d="M350 225C350 211.193 361.193 200 375 200H400C413.807 200 425 211.193 425 225V275C425 288.807 413.807 300 400 300H375C361.193 300 350 288.807 350 275V225Z" fill="white" fill-opacity="0.05"/>
  <path d="M350 325C350 311.193 361.193 300 375 300H400C413.807 300 425 311.193 425 325V375C425 388.807 413.807 400 400 400H375C361.193 400 350 388.807 350 375V325Z" fill="white" fill-opacity="0.05"/>
</svg>
