
<svg width="650" height="400" viewBox="0 0 650 400" fill="none" xmlns="http://www.w3.org/2000/svg">
  <!-- Background -->
  <rect width="650" height="400" rx="10" fill="#F8F9FA"/>
  
  <!-- Sun -->
  <circle cx="180" cy="90" r="50" fill="#FFC107"/>
  
  <!-- Fields -->
  <path d="M0 250C100 220 200 280 300 240C400 200 500 260 650 230V400H0V250Z" fill="#81C784"/>
  <path d="M0 280C100 260 200 300 300 270C400 240 500 290 650 260V400H0V280Z" fill="#66BB6A"/>
  <path d="M0 310C100 290 200 320 300 300C400 280 500 310 650 290V400H0V310Z" fill="#4CAF50"/>
  
  <!-- Farmers -->
  <circle cx="150" cy="280" r="30" fill="#8D6E63"/>
  <circle cx="150" cy="230" r="20" fill="#A1887F"/>
  <rect x="130" y="280" width="40" height="60" rx="5" fill="#795548"/>
  <rect x="130" y="340" width="10" height="30" fill="#5D4037"/>
  <rect x="160" y="340" width="10" height="30" fill="#5D4037"/>
  
  <circle cx="400" cy="270" r="30" fill="#8D6E63"/>
  <circle cx="400" cy="220" r="20" fill="#D7CCC8"/>
  <rect x="380" y="270" width="40" height="60" rx="5" fill="#BCAAA4"/>
  <rect x="380" y="330" width="10" height="30" fill="#A1887F"/>
  <rect x="410" y="330" width="10" height="30" fill="#A1887F"/>
  
  <!-- Plants -->
  <path d="M220 320C220 320 220 280 220 270C220 260 230 250 240 250C250 250 260 260 260 270C260 280 260 320 260 320" stroke="#33691E" stroke-width="6"/>
  <path d="M240 250C240 250 220 220 215 210" stroke="#33691E" stroke-width="3"/>
  <path d="M240 250C240 250 265 220 270 210" stroke="#33691E" stroke-width="3"/>
  <path d="M240 270C240 270 220 250 210 245" stroke="#33691E" stroke-width="3"/>
  <path d="M240 270C240 270 260 250 270 245" stroke="#33691E" stroke-width="3"/>
  <path d="M240 290C240 290 220 270 215 265" stroke="#33691E" stroke-width="3"/>
  <path d="M240 290C240 290 260 270 265 265" stroke="#33691E" stroke-width="3"/>
  
  <path d="M320 330C320 330 320 290 320 280C320 270 330 260 340 260C350 260 360 270 360 280C360 290 360 330 360 330" stroke="#33691E" stroke-width="6"/>
  <path d="M340 260C340 260 320 230 315 220" stroke="#33691E" stroke-width="3"/>
  <path d="M340 260C340 260 365 230 370 220" stroke="#33691E" stroke-width="3"/>
  <path d="M340 280C340 280 320 260 310 255" stroke="#33691E" stroke-width="3"/>
  <path d="M340 280C340 280 360 260 370 255" stroke="#33691E" stroke-width="3"/>
  <path d="M340 300C340 300 320 280 315 275" stroke="#33691E" stroke-width="3"/>
  <path d="M340 300C340 300 360 280 365 275" stroke="#33691E" stroke-width="3"/>
  
  <path d="M500 330C500 330 500 290 500 280C500 270 510 260 520 260C530 260 540 270 540 280C540 290 540 330 540 330" stroke="#33691E" stroke-width="6"/>
  <path d="M520 260C520 260 500 230 495 220" stroke="#33691E" stroke-width="3"/>
  <path d="M520 260C520 260 545 230 550 220" stroke="#33691E" stroke-width="3"/>
  <path d="M520 280C520 280 500 260 490 255" stroke="#33691E" stroke-width="3"/>
  <path d="M520 280C520 280 540 260 550 255" stroke="#33691E" stroke-width="3"/>
  <path d="M520 300C520 300 500 280 495 275" stroke="#33691E" stroke-width="3"/>
  <path d="M520 300C520 300 540 280 545 275" stroke="#33691E" stroke-width="3"/>
  
  <!-- Cloud -->
  <ellipse cx="420" cy="70" rx="50" ry="30" fill="white"/>
  <ellipse cx="460" cy="60" rx="40" ry="25" fill="white"/>
  <ellipse cx="380" cy="60" rx="35" ry="22" fill="white"/>
  
  <ellipse cx="580" cy="100" rx="40" ry="25" fill="white"/>
  <ellipse cx="610" cy="90" rx="30" ry="20" fill="white"/>
  <ellipse cx="550" cy="90" rx="25" ry="18" fill="white"/>
  
  <!-- Connection lines -->
  <line x1="180" y1="260" x2="370" y2="260" stroke="#FFC107" stroke-width="2" stroke-dasharray="5 5"/>
  <circle cx="180" cy="260" r="5" fill="#FFC107"/>
  <circle cx="370" cy="260" r="5" fill="#FFC107"/>
</svg>
