
<svg width="48" height="48" viewBox="0 0 48 48" fill="none" xmlns="http://www.w3.org/2000/svg">
  <rect width="48" height="48" rx="8" fill="#4CAF50"/>
  <path d="M24 10C21.8783 10 19.8434 10.9084 18.3431 12.5248C16.8429 14.1412 16 16.3388 16 18.6443C16 26.4661 24 38 24 38C24 38 32 26.4661 32 18.6443C32 16.3388 31.1571 14.1412 29.6569 12.5248C28.1566 10.9084 26.1217 10 24 10ZM24 22.2466C23.2044 22.2466 22.4413 21.9265 21.8787 21.3574C21.3161 20.7883 21 20.0239 21 19.2243C21 18.4247 21.3161 17.6603 21.8787 17.0911C22.4413 16.522 23.2044 16.2019 24 16.2019C24.7956 16.2019 25.5587 16.522 26.1213 17.0911C26.6839 17.6603 27 18.4247 27 19.2243C27 20.0239 26.6839 20.7883 26.1213 21.3574C25.5587 21.9265 24.7956 22.2466 24 22.2466Z" fill="white"/>
  <path d="M35.7071 27.7071C36.0976 27.3166 36.0976 26.6834 35.7071 26.2929C35.3166 25.9024 34.6834 25.9024 34.2929 26.2929L35.7071 27.7071ZM31 31L30.2929 31.7071C30.6834 32.0976 31.3166 32.0976 31.7071 31.7071L31 31ZM28.7071 29.2929C28.3166 28.9024 27.6834 28.9024 27.2929 29.2929C26.9024 29.6834 26.9024 30.3166 27.2929 30.7071L28.7071 29.2929ZM13.7071 28.7071C14.0976 28.3166 14.0976 27.6834 13.7071 27.2929C13.3166 26.9024 12.6834 26.9024 12.2929 27.2929L13.7071 28.7071ZM10 31L9.29289 30.2929C8.90237 30.6834 8.90237 31.3166 9.29289 31.7071L10 31ZM10.7071 31.7071C11.0976 32.0976 11.7308 32.0976 12.1213 31.7071C12.5118 31.3166 12.5118 30.6834 12.1213 30.2929L10.7071 31.7071ZM34.2929 26.2929L30.2929 30.2929L31.7071 31.7071L35.7071 27.7071L34.2929 26.2929ZM31.7071 30.2929L28.7071 27.2929L27.2929 28.7071L30.2929 31.7071L31.7071 30.2929ZM12.2929 27.2929L8.29289 31.2929L9.70711 32.7071L13.7071 28.7071L12.2929 27.2929ZM9.29289 31.7071L12.1213 34.5355L13.5355 33.1213L10.7071 30.2929L9.29289 31.7071Z" fill="white"/>
  <path d="M18 36C18 34.8954 18.8954 34 20 34H28C29.1046 34 30 34.8954 30 36V41C30 42.1046 29.1046 43 28 43H20C18.8954 43 18 42.1046 18 41V36Z" fill="white"/>
</svg>
